<?xml version="1.0" encoding="UTF-8" standalone="no"?><!DOCTYPE svg PUBLIC "-//W3C//DTD SVG 1.1//EN" "http://www.w3.org/Graphics/SVG/1.1/DTD/svg11.dtd"><svg width="100%" height="100%" viewBox="0 0 2200 512" version="1.1" xmlns="http://www.w3.org/2000/svg" xmlns:xlink="http://www.w3.org/1999/xlink" xml:space="preserve" xmlns:serif="http://www.serif.com/" style="fill-rule:evenodd;clip-rule:evenodd;stroke-linejoin:round;stroke-miterlimit:2;"><path d="M75.42,345.612c1.626,-0.004 3.251,-0.01 4.877,-0.016c4.434,-0.014 8.868,-0.01 13.302,-0.003c4.795,0.005 9.59,-0.008 14.385,-0.018c9.381,-0.017 18.761,-0.018 28.142,-0.013c7.628,0.004 15.256,0.003 22.883,-0.003c1.087,-0.001 2.175,-0.001 3.295,-0.002c2.209,-0.002 4.419,-0.003 6.628,-0.005c20.699,-0.014 41.397,-0.008 62.096,0.003c18.917,0.01 37.833,-0.003 56.75,-0.027c19.447,-0.024 38.894,-0.034 58.341,-0.027c10.909,0.003 21.817,0.001 32.726,-0.016c9.286,-0.015 18.572,-0.015 27.858,0.002c4.733,0.008 9.466,0.011 14.199,-0.005c4.342,-0.014 8.683,-0.009 13.024,0.01c1.562,0.004 3.124,0.001 4.685,-0.01c17.016,-0.106 34.768,3.361 47.581,15.481c6.22,6.999 10.259,15.069 12.809,24.035c0.177,0.608 0.353,1.216 0.535,1.842c5.118,19.755 2.637,42.704 -6.98,60.576c-7.172,11.911 -19.063,18.805 -32.322,22.167c-7.881,1.765 -15.621,1.836 -23.646,1.803c-1.625,0.004 -3.25,0.01 -4.875,0.016c-4.432,0.014 -8.864,0.01 -13.296,0.003c-4.793,-0.005 -9.586,0.008 -14.379,0.018c-9.377,0.017 -18.754,0.018 -28.131,0.013c-7.625,-0.004 -15.251,-0.003 -22.876,0.003c-1.631,0.001 -1.631,0.001 -3.294,0.002c-2.209,0.002 -4.418,0.003 -6.626,0.005c-20.694,0.014 -41.388,0.008 -62.082,-0.003c-18.909,-0.01 -37.819,0.003 -56.728,0.027c-19.441,0.024 -38.882,0.034 -58.324,0.027c-10.905,-0.003 -21.809,-0.001 -32.714,0.016c-9.283,0.015 -18.567,0.015 -27.85,-0.002c-4.731,-0.008 -9.462,-0.011 -14.193,0.005c-4.341,0.014 -8.681,0.009 -13.022,-0.01c-1.56,-0.004 -3.121,-0.001 -4.681,0.01c-16.932,0.106 -33.955,-2.879 -46.893,-14.763c-12.565,-13.595 -16.21,-29.962 -16.059,-48.066c0.008,-1.27 0.015,-2.54 0.023,-3.849c0.28,-15.99 3.483,-31.048 14.661,-43.217c14.34,-13.254 31.254,-16.089 50.174,-16.009Z" style="fill:#171717;fill-rule:nonzero;"/><path d="M75.42,193.612c1.626,-0.004 3.251,-0.01 4.877,-0.016c4.434,-0.014 8.868,-0.01 13.302,-0.003c4.795,0.005 9.59,-0.008 14.385,-0.018c9.381,-0.017 18.761,-0.018 28.142,-0.013c7.628,0.004 15.256,0.003 22.883,-0.003c1.087,-0.001 2.175,-0.001 3.295,-0.002c2.209,-0.002 4.419,-0.003 6.628,-0.005c20.699,-0.014 41.397,-0.008 62.096,0.003c18.917,0.01 37.833,-0.003 56.75,-0.027c19.447,-0.024 38.894,-0.034 58.341,-0.027c10.909,0.003 21.817,0.001 32.726,-0.016c9.286,-0.015 18.572,-0.015 27.858,0.002c4.733,0.008 9.466,0.011 14.199,-0.005c4.342,-0.014 8.683,-0.009 13.024,0.01c1.562,0.004 3.124,0.001 4.685,-0.01c17.016,-0.106 34.768,3.361 47.581,15.481c6.22,6.999 10.259,15.069 12.809,24.035c0.177,0.608 0.353,1.216 0.535,1.842c5.118,19.755 2.637,42.704 -6.98,60.576c-7.172,11.911 -19.063,18.805 -32.322,22.167c-7.881,1.765 -15.621,1.836 -23.646,1.803c-1.625,0.004 -3.25,0.01 -4.875,0.016c-4.432,0.014 -8.864,0.01 -13.296,0.003c-4.793,-0.005 -9.586,0.008 -14.379,0.018c-9.377,0.017 -18.754,0.018 -28.131,0.013c-7.625,-0.004 -15.251,-0.003 -22.876,0.003c-1.631,0.001 -1.631,0.001 -3.294,0.002c-2.209,0.002 -4.418,0.003 -6.626,0.005c-20.694,0.014 -41.388,0.008 -62.082,-0.003c-18.909,-0.01 -37.819,0.003 -56.728,0.027c-19.441,0.024 -38.882,0.034 -58.324,0.027c-10.905,-0.003 -21.809,-0.001 -32.714,0.016c-9.283,0.015 -18.567,0.015 -27.85,-0.002c-4.731,-0.008 -9.462,-0.011 -14.193,0.005c-4.341,0.014 -8.681,0.009 -13.022,-0.01c-1.56,-0.004 -3.121,-0.001 -4.681,0.01c-16.932,0.106 -33.955,-2.879 -46.893,-14.763c-12.565,-13.595 -16.21,-29.962 -16.059,-48.066c0.008,-1.27 0.015,-2.54 0.023,-3.849c0.28,-15.99 3.483,-31.048 14.661,-43.217c14.34,-13.254 31.254,-16.089 50.174,-16.009Z" style="fill:#171717;fill-rule:nonzero;"/><path d="M75.42,41.612c1.626,-0.004 3.251,-0.01 4.877,-0.016c4.434,-0.014 8.868,-0.01 13.302,-0.003c4.795,0.005 9.59,-0.008 14.385,-0.018c9.381,-0.017 18.761,-0.018 28.142,-0.013c7.628,0.004 15.256,0.003 22.883,-0.003c1.087,-0.001 2.175,-0.001 3.295,-0.002c2.209,-0.002 4.419,-0.003 6.628,-0.005c20.699,-0.014 41.397,-0.008 62.096,0.003c18.917,0.01 37.833,-0.003 56.75,-0.027c19.447,-0.024 38.894,-0.034 58.341,-0.027c10.909,0.003 21.817,0.001 32.726,-0.016c9.286,-0.015 18.572,-0.015 27.858,0.002c4.733,0.008 9.466,0.011 14.199,-0.005c4.342,-0.014 8.683,-0.009 13.024,0.01c1.562,0.004 3.124,0.001 4.685,-0.01c17.016,-0.106 34.768,3.361 47.581,15.481c6.22,6.999 10.259,15.069 12.809,24.035c0.177,0.608 0.353,1.216 0.535,1.842c5.118,19.755 2.637,42.704 -6.98,60.576c-7.172,11.911 -19.063,18.805 -32.322,22.167c-7.881,1.765 -15.621,1.836 -23.646,1.803c-1.625,0.004 -3.25,0.01 -4.875,0.016c-4.432,0.014 -8.864,0.01 -13.296,0.003c-4.793,-0.005 -9.586,0.008 -14.379,0.018c-9.377,0.017 -18.754,0.018 -28.131,0.013c-7.625,-0.004 -15.251,-0.003 -22.876,0.003c-1.631,0.001 -1.631,0.001 -3.294,0.002c-2.209,0.002 -4.418,0.003 -6.626,0.005c-20.694,0.014 -41.388,0.008 -62.082,-0.003c-18.909,-0.01 -37.819,0.003 -56.728,0.027c-19.441,0.024 -38.882,0.034 -58.324,0.027c-10.905,-0.003 -21.809,-0.001 -32.714,0.016c-9.283,0.015 -18.567,0.015 -27.85,-0.002c-4.731,-0.008 -9.462,-0.011 -14.193,0.005c-4.341,0.014 -8.681,0.009 -13.022,-0.01c-1.56,-0.004 -3.121,-0.001 -4.681,0.01c-16.932,0.106 -33.955,-2.879 -46.893,-14.763c-12.565,-13.595 -16.21,-29.962 -16.059,-48.066c0.008,-1.27 0.015,-2.54 0.023,-3.849c0.28,-15.99 3.483,-31.048 14.661,-43.217c14.34,-13.254 31.254,-16.089 50.174,-16.009Z" style="fill:#171717;fill-rule:nonzero;"/><path d="M372.202,363.855c1.06,-0.005 1.06,-0.005 2.141,-0.01c2.327,-0.009 4.654,-0.011 6.982,-0.013c1.628,-0.003 3.256,-0.007 4.884,-0.01c3.412,-0.006 6.824,-0.008 10.236,-0.007c4.35,0 8.699,-0.014 13.048,-0.031c3.364,-0.011 6.728,-0.013 10.092,-0.013c1.602,-0.001 3.204,-0.006 4.807,-0.013c15.218,-0.067 29.964,0.829 41.566,11.836c10.217,12.034 10.997,26.686 10.286,41.701c-0.947,10.559 -5.239,20.169 -13.051,27.374c-9.429,7.684 -19.823,9.416 -31.686,9.509c-1.053,0.01 -1.053,0.01 -2.127,0.02c-2.296,0.02 -4.593,0.031 -6.889,0.041c-0.793,0.004 -1.586,0.008 -2.403,0.012c-4.197,0.021 -8.394,0.035 -12.591,0.045c-4.299,0.011 -8.597,0.045 -12.896,0.085c-3.338,0.026 -6.677,0.035 -10.015,0.038c-1.583,0.005 -3.166,0.016 -4.749,0.035c-14.638,0.162 -27.208,-2.082 -38.541,-11.938c-9.23,-9.44 -10.554,-22.919 -10.54,-35.378c0.155,-12.367 2.702,-22.642 10.993,-32.137c8.311,-8.017 19.165,-11.111 30.456,-11.145Z" style="fill:#e28316;fill-rule:nonzero;"/><path d="M372.202,59.855c1.06,-0.005 1.06,-0.005 2.141,-0.01c2.327,-0.009 4.654,-0.011 6.982,-0.013c1.628,-0.003 3.256,-0.007 4.884,-0.01c3.412,-0.006 6.824,-0.008 10.236,-0.007c4.35,0 8.699,-0.014 13.048,-0.031c3.364,-0.011 6.728,-0.013 10.092,-0.013c1.602,-0.001 3.204,-0.006 4.807,-0.013c15.218,-0.067 29.964,0.829 41.566,11.836c10.217,12.034 10.997,26.686 10.286,41.701c-0.947,10.559 -5.239,20.169 -13.051,27.374c-9.429,7.684 -19.823,9.416 -31.686,9.509c-1.053,0.01 -1.053,0.01 -2.127,0.02c-2.296,0.02 -4.593,0.031 -6.889,0.041c-0.793,0.004 -1.586,0.008 -2.403,0.012c-4.197,0.021 -8.394,0.035 -12.591,0.045c-4.299,0.011 -8.597,0.045 -12.896,0.085c-3.338,0.026 -6.677,0.035 -10.015,0.038c-1.583,0.005 -3.166,0.016 -4.749,0.035c-14.638,0.162 -27.208,-2.082 -38.541,-11.938c-9.23,-9.44 -10.554,-22.919 -10.54,-35.378c0.155,-12.367 2.702,-22.642 10.993,-32.137c8.311,-8.017 19.165,-11.111 30.456,-11.145Z" style="fill:#e28316;fill-rule:nonzero;"/><path d="M212.202,59.855c1.06,-0.005 1.06,-0.005 2.141,-0.01c2.327,-0.009 4.654,-0.011 6.982,-0.013c1.628,-0.003 3.256,-0.007 4.884,-0.01c3.412,-0.006 6.824,-0.008 10.236,-0.007c4.35,0 8.699,-0.014 13.048,-0.031c3.364,-0.011 6.728,-0.013 10.092,-0.013c1.602,-0.001 3.204,-0.006 4.807,-0.013c15.218,-0.067 29.964,0.829 41.566,11.836c10.217,12.034 10.997,26.686 10.286,41.701c-0.947,10.559 -5.239,20.169 -13.051,27.374c-9.429,7.684 -19.823,9.416 -31.686,9.509c-1.053,0.01 -1.053,0.01 -2.127,0.02c-2.296,0.02 -4.593,0.031 -6.889,0.041c-0.793,0.004 -1.586,0.008 -2.403,0.012c-4.197,0.021 -8.394,0.035 -12.591,0.045c-4.299,0.011 -8.597,0.045 -12.896,0.085c-3.338,0.026 -6.677,0.035 -10.015,0.038c-1.583,0.005 -3.166,0.016 -4.749,0.035c-14.638,0.162 -27.208,-2.082 -38.541,-11.938c-9.23,-9.44 -10.554,-22.919 -10.54,-35.378c0.155,-12.367 2.702,-22.642 10.993,-32.137c8.311,-8.017 19.165,-11.111 30.456,-11.145Z" style="fill:#e28316;fill-rule:nonzero;"/><path d="M75.42,345.612c1.626,-0.004 3.251,-0.01 4.877,-0.016c4.434,-0.014 8.868,-0.01 13.302,-0.003c4.795,0.005 9.59,-0.008 14.385,-0.018c9.381,-0.017 18.761,-0.018 28.142,-0.013c7.628,0.004 15.256,0.003 22.883,-0.003c1.087,-0.001 2.175,-0.001 3.295,-0.002c2.209,-0.002 4.419,-0.003 6.628,-0.005c20.699,-0.014 41.397,-0.008 62.096,0.003c18.917,0.01 37.833,-0.003 56.75,-0.027c19.447,-0.024 38.894,-0.034 58.341,-0.027c10.909,0.003 21.817,0.001 32.726,-0.016c9.286,-0.015 18.572,-0.015 27.858,0.002c4.733,0.008 9.466,0.011 14.199,-0.005c4.342,-0.014 8.683,-0.009 13.024,0.01c1.562,0.004 3.124,0.001 4.685,-0.01c17.016,-0.106 34.768,3.361 47.581,15.481c6.22,6.999 10.259,15.069 12.809,24.035c0.177,0.608 0.353,1.216 0.535,1.842c5.118,19.755 2.637,42.704 -6.98,60.576c-7.172,11.911 -19.063,18.805 -32.322,22.167c-7.881,1.765 -15.621,1.836 -23.646,1.803c-1.625,0.004 -3.25,0.01 -4.875,0.016c-4.432,0.014 -8.864,0.01 -13.296,0.003c-4.793,-0.005 -9.586,0.008 -14.379,0.018c-9.377,0.017 -18.754,0.018 -28.131,0.013c-7.625,-0.004 -15.251,-0.003 -22.876,0.003c-1.631,0.001 -1.631,0.001 -3.294,0.002c-2.209,0.002 -4.418,0.003 -6.626,0.005c-20.694,0.014 -41.388,0.008 -62.082,-0.003c-18.909,-0.01 -37.819,0.003 -56.728,0.027c-19.441,0.024 -38.882,0.034 -58.324,0.027c-10.905,-0.003 -21.809,-0.001 -32.714,0.016c-9.283,0.015 -18.567,0.015 -27.85,-0.002c-4.731,-0.008 -9.462,-0.011 -14.193,0.005c-4.341,0.014 -8.681,0.009 -13.022,-0.01c-1.56,-0.004 -3.121,-0.001 -4.681,0.01c-16.932,0.106 -33.955,-2.879 -46.893,-14.763c-12.565,-13.595 -16.21,-29.962 -16.059,-48.066c0.008,-1.27 0.015,-2.54 0.023,-3.849c0.28,-15.99 3.483,-31.048 14.661,-43.217c14.34,-13.254 31.254,-16.089 50.174,-16.009Zm-22.42,7.388c-1.279,0.302 -1.279,0.302 -2.584,0.611c-11.662,2.856 -20.833,9.946 -27.068,20.072c-10.099,18.593 -9.489,41.514 -3.723,61.441c4.101,11.483 11.7,19.431 22.313,25.062c8.753,4.119 17.179,5.935 26.885,5.941c0.653,0.002 1.305,0.004 1.977,0.005c2.178,0.005 4.355,0.002 6.533,-0c1.581,0.002 3.161,0.004 4.742,0.007c4.337,0.006 8.675,0.006 13.012,0.005c4.68,-0 9.361,0.005 14.041,0.01c9.168,0.008 18.336,0.011 27.505,0.012c7.454,0 14.909,0.003 22.363,0.006c21.142,0.009 42.285,0.013 63.427,0.013c1.709,-0 1.709,-0 3.453,-0c1.141,-0 2.282,-0 3.458,-0c18.485,-0 36.97,0.009 55.455,0.023c18.988,0.014 37.976,0.021 56.964,0.02c10.657,-0 21.314,0.002 31.971,0.013c9.075,0.009 18.151,0.011 27.226,0.004c4.627,-0.003 9.255,-0.003 13.882,0.005c4.243,0.008 8.486,0.006 12.728,-0.002c1.528,-0.002 3.057,0 4.585,0.006c18.311,0.063 35.66,-1.649 49.854,-14.255c12.243,-13.134 14.309,-29.893 14.152,-47.121c-0.532,-13.558 -3.428,-24.708 -11.152,-35.879c-0.835,-1.268 -0.835,-1.268 -1.688,-2.562c-10.639,-11.214 -25.574,-15.113 -40.638,-15.53c-4.077,-0.04 -8.152,-0.046 -12.229,-0.042c-1.58,-0.002 -3.161,-0.004 -4.741,-0.007c-4.327,-0.006 -8.654,-0.006 -12.981,-0.005c-4.673,0 -9.346,-0.005 -14.019,-0.01c-9.148,-0.008 -18.296,-0.011 -27.445,-0.012c-7.436,-0 -14.873,-0.003 -22.309,-0.006c-21.09,-0.009 -42.181,-0.013 -63.271,-0.013c-1.704,0 -1.704,0 -3.443,0c-1.707,0 -1.707,0 -3.448,0c-18.445,0 -36.89,-0.009 -55.335,-0.023c-18.946,-0.014 -37.892,-0.021 -56.838,-0.02c-10.634,0 -21.268,-0.002 -31.902,-0.013c-9.052,-0.009 -18.104,-0.011 -27.156,-0.004c-4.617,0.003 -9.234,0.003 -13.851,-0.005c-4.23,-0.008 -8.459,-0.006 -12.689,0.002c-1.527,0.002 -3.054,-0 -4.58,-0.006c-8.024,-0.027 -15.629,0.248 -23.436,2.255Z" style="fill:#3f3f3f;fill-rule:nonzero;"/><path d="M75.42,193.612c1.626,-0.004 3.251,-0.01 4.877,-0.016c4.434,-0.014 8.868,-0.01 13.302,-0.003c4.795,0.005 9.59,-0.008 14.385,-0.018c9.381,-0.017 18.761,-0.018 28.142,-0.013c7.628,0.004 15.256,0.003 22.883,-0.003c1.087,-0.001 2.175,-0.001 3.295,-0.002c2.209,-0.002 4.419,-0.003 6.628,-0.005c20.699,-0.014 41.397,-0.008 62.096,0.003c18.917,0.01 37.833,-0.003 56.75,-0.027c19.447,-0.024 38.894,-0.034 58.341,-0.027c10.909,0.003 21.817,0.001 32.726,-0.016c9.286,-0.015 18.572,-0.015 27.858,0.002c4.733,0.008 9.466,0.011 14.199,-0.005c4.342,-0.014 8.683,-0.009 13.024,0.01c1.562,0.004 3.124,0.001 4.685,-0.01c17.016,-0.106 34.768,3.361 47.581,15.481c6.22,6.999 10.259,15.069 12.809,24.035c0.177,0.608 0.353,1.216 0.535,1.842c5.118,19.755 2.637,42.704 -6.98,60.576c-7.172,11.911 -19.063,18.805 -32.322,22.167c-7.881,1.765 -15.621,1.836 -23.646,1.803c-1.625,0.004 -3.25,0.01 -4.875,0.016c-4.432,0.014 -8.864,0.01 -13.296,0.003c-4.793,-0.005 -9.586,0.008 -14.379,0.018c-9.377,0.017 -18.754,0.018 -28.131,0.013c-7.625,-0.004 -15.251,-0.003 -22.876,0.003c-1.631,0.001 -1.631,0.001 -3.294,0.002c-2.209,0.002 -4.418,0.003 -6.626,0.005c-20.694,0.014 -41.388,0.008 -62.082,-0.003c-18.909,-0.01 -37.819,0.003 -56.728,0.027c-19.441,0.024 -38.882,0.034 -58.324,0.027c-10.905,-0.003 -21.809,-0.001 -32.714,0.016c-9.283,0.015 -18.567,0.015 -27.85,-0.002c-4.731,-0.008 -9.462,-0.011 -14.193,0.005c-4.341,0.014 -8.681,0.009 -13.022,-0.01c-1.56,-0.004 -3.121,-0.001 -4.681,0.01c-16.932,0.106 -33.955,-2.879 -46.893,-14.763c-12.565,-13.595 -16.21,-29.962 -16.059,-48.066c0.008,-1.27 0.015,-2.54 0.023,-3.849c0.28,-15.99 3.483,-31.048 14.661,-43.217c14.34,-13.254 31.254,-16.089 50.174,-16.009Zm-22.42,7.388c-1.279,0.302 -1.279,0.302 -2.584,0.611c-11.662,2.856 -20.833,9.946 -27.068,20.072c-10.099,18.593 -9.489,41.514 -3.723,61.441c4.101,11.483 11.7,19.431 22.313,25.062c8.753,4.119 17.179,5.935 26.885,5.941c0.653,0.002 1.305,0.004 1.977,0.005c2.178,0.005 4.355,0.002 6.533,-0c1.581,0.002 3.161,0.004 4.742,0.007c4.337,0.006 8.675,0.006 13.012,0.005c4.68,-0 9.361,0.005 14.041,0.01c9.168,0.008 18.336,0.011 27.505,0.012c7.454,0 14.909,0.003 22.363,0.006c21.142,0.009 42.285,0.013 63.427,0.013c1.709,-0 1.709,-0 3.453,-0c1.141,-0 2.282,-0 3.458,-0c18.485,-0 36.97,0.009 55.455,0.023c18.988,0.014 37.976,0.021 56.964,0.02c10.657,-0 21.314,0.002 31.971,0.013c9.075,0.009 18.151,0.011 27.226,0.004c4.627,-0.003 9.255,-0.003 13.882,0.005c4.243,0.008 8.486,0.006 12.728,-0.002c1.528,-0.002 3.057,0 4.585,0.006c18.311,0.063 35.66,-1.649 49.854,-14.255c12.243,-13.134 14.309,-29.893 14.152,-47.121c-0.532,-13.558 -3.428,-24.708 -11.152,-35.879c-0.835,-1.268 -0.835,-1.268 -1.688,-2.562c-10.639,-11.214 -25.574,-15.113 -40.638,-15.53c-4.077,-0.04 -8.152,-0.046 -12.229,-0.042c-1.58,-0.002 -3.161,-0.004 -4.741,-0.007c-4.327,-0.006 -8.654,-0.006 -12.981,-0.005c-4.673,0 -9.346,-0.005 -14.019,-0.01c-9.148,-0.008 -18.296,-0.011 -27.445,-0.012c-7.436,-0 -14.873,-0.003 -22.309,-0.006c-21.09,-0.009 -42.181,-0.013 -63.271,-0.013c-1.704,0 -1.704,0 -3.443,0c-1.707,0 -1.707,0 -3.448,0c-18.445,0 -36.89,-0.009 -55.335,-0.023c-18.946,-0.014 -37.892,-0.021 -56.838,-0.02c-10.634,0 -21.268,-0.002 -31.902,-0.013c-9.052,-0.009 -18.104,-0.011 -27.156,-0.004c-4.617,0.003 -9.234,0.003 -13.851,-0.005c-4.23,-0.008 -8.459,-0.006 -12.689,0.002c-1.527,0.002 -3.054,-0 -4.58,-0.006c-8.024,-0.027 -15.629,0.248 -23.436,2.255Z" style="fill:#3f3f3f;fill-rule:nonzero;"/><path d="M75.42,41.612c1.626,-0.004 3.251,-0.01 4.877,-0.016c4.434,-0.014 8.868,-0.01 13.302,-0.003c4.795,0.005 9.59,-0.008 14.385,-0.018c9.381,-0.017 18.761,-0.018 28.142,-0.013c7.628,0.004 15.256,0.003 22.883,-0.003c1.087,-0.001 2.175,-0.001 3.295,-0.002c2.209,-0.002 4.419,-0.003 6.628,-0.005c20.699,-0.014 41.397,-0.008 62.096,0.003c18.917,0.01 37.833,-0.003 56.75,-0.027c19.447,-0.024 38.894,-0.034 58.341,-0.027c10.909,0.003 21.817,0.001 32.726,-0.016c9.286,-0.015 18.572,-0.015 27.858,0.002c4.733,0.008 9.466,0.011 14.199,-0.005c4.342,-0.014 8.683,-0.009 13.024,0.01c1.562,0.004 3.124,0.001 4.685,-0.01c17.016,-0.106 34.768,3.361 47.581,15.481c6.22,6.999 10.259,15.069 12.809,24.035c0.177,0.608 0.353,1.216 0.535,1.842c5.118,19.755 2.637,42.704 -6.98,60.576c-7.172,11.911 -19.063,18.805 -32.322,22.167c-7.881,1.765 -15.621,1.836 -23.646,1.803c-1.625,0.004 -3.25,0.01 -4.875,0.016c-4.432,0.014 -8.864,0.01 -13.296,0.003c-4.793,-0.005 -9.586,0.008 -14.379,0.018c-9.377,0.017 -18.754,0.018 -28.131,0.013c-7.625,-0.004 -15.251,-0.003 -22.876,0.003c-1.631,0.001 -1.631,0.001 -3.294,0.002c-2.209,0.002 -4.418,0.003 -6.626,0.005c-20.694,0.014 -41.388,0.008 -62.082,-0.003c-18.909,-0.01 -37.819,0.003 -56.728,0.027c-19.441,0.024 -38.882,0.034 -58.324,0.027c-10.905,-0.003 -21.809,-0.001 -32.714,0.016c-9.283,0.015 -18.567,0.015 -27.85,-0.002c-4.731,-0.008 -9.462,-0.011 -14.193,0.005c-4.341,0.014 -8.681,0.009 -13.022,-0.01c-1.56,-0.004 -3.121,-0.001 -4.681,0.01c-16.932,0.106 -33.955,-2.879 -46.893,-14.763c-12.565,-13.595 -16.21,-29.962 -16.059,-48.066c0.008,-1.27 0.015,-2.54 0.023,-3.849c0.28,-15.99 3.483,-31.048 14.661,-43.217c14.34,-13.254 31.254,-16.089 50.174,-16.009Zm-22.42,7.388c-1.279,0.302 -1.279,0.302 -2.584,0.611c-11.662,2.856 -20.833,9.946 -27.068,20.072c-10.099,18.593 -9.489,41.514 -3.723,61.441c4.101,11.483 11.7,19.431 22.313,25.062c8.753,4.119 17.179,5.935 26.885,5.941c0.653,0.002 1.305,0.004 1.977,0.005c2.178,0.005 4.355,0.002 6.533,-0c1.581,0.002 3.161,0.004 4.742,0.007c4.337,0.006 8.675,0.006 13.012,0.005c4.68,-0 9.361,0.005 14.041,0.01c9.168,0.008 18.336,0.011 27.505,0.012c7.454,0 14.909,0.003 22.363,0.006c21.142,0.009 42.285,0.013 63.427,0.013c1.709,-0 1.709,-0 3.453,-0c1.141,-0 2.282,-0 3.458,-0c18.485,-0 36.97,0.009 55.455,0.023c18.988,0.014 37.976,0.021 56.964,0.02c10.657,-0 21.314,0.002 31.971,0.013c9.075,0.009 18.151,0.011 27.226,0.004c4.627,-0.003 9.255,-0.003 13.882,0.005c4.243,0.008 8.486,0.006 12.728,-0.002c1.528,-0.002 3.057,0 4.585,0.006c18.311,0.063 35.66,-1.649 49.854,-14.255c12.243,-13.134 14.309,-29.893 14.152,-47.121c-0.532,-13.558 -3.428,-24.708 -11.152,-35.879c-0.835,-1.268 -0.835,-1.268 -1.688,-2.562c-10.639,-11.214 -25.574,-15.113 -40.638,-15.53c-4.077,-0.04 -8.152,-0.046 -12.229,-0.042c-1.58,-0.002 -3.161,-0.004 -4.741,-0.007c-4.327,-0.006 -8.654,-0.006 -12.981,-0.005c-4.673,0 -9.346,-0.005 -14.019,-0.01c-9.148,-0.008 -18.296,-0.011 -27.445,-0.012c-7.436,-0 -14.873,-0.003 -22.309,-0.006c-21.09,-0.009 -42.181,-0.013 -63.271,-0.013c-1.704,0 -1.704,0 -3.443,0c-1.707,0 -1.707,0 -3.448,0c-18.445,0 -36.89,-0.009 -55.335,-0.023c-18.946,-0.014 -37.892,-0.021 -56.838,-0.02c-10.634,0 -21.268,-0.002 -31.902,-0.013c-9.052,-0.009 -18.104,-0.011 -27.156,-0.004c-4.617,0.003 -9.234,0.003 -13.851,-0.005c-4.23,-0.008 -8.459,-0.006 -12.689,0.002c-1.527,0.002 -3.054,-0 -4.58,-0.006c-8.024,-0.027 -15.629,0.248 -23.436,2.255Z" style="fill:#3f3f3f;fill-rule:nonzero;"/><g transform="matrix(300,0,0,300,2121.403702,313.710775)"></g><text x="574.236px" y="313.711px" style="font-family:'TrebuchetMS', 'Trebuchet MS', sans-serif;font-size:300px;fill:#c9c9c9;">MKVP<tspan x="1289.226px 1405.828px " y="313.711px 313.711px ">ri</tspan>ority</text><g transform="matrix(91.666667,0,0,91.666667,1958.494767,399.62793)"></g><text x="741.047px" y="399.628px" style="font-family:'TrebuchetMS', 'Trebuchet MS', sans-serif;font-size:91.667px;fill:#474747;">Audio/Subtitle P<tspan x="1415.209px 1450.837px " y="399.628px 399.628px ">ri</tspan>ority Scores</text></svg>