<?xml version="1.0" encoding="UTF-8"?>
<svg version="1.1" xmlns="http://www.w3.org/2000/svg" width="512" height="512">
<path d="M0 0 C1.6257044 -0.00418097 3.25140587 -0.00966265 4.87710202 -0.01631981 C9.31105038 -0.03069301 13.74481158 -0.02655531 18.17876983 -0.019153 C22.97370985 -0.01440339 27.76861042 -0.02694696 32.5635376 -0.03717041 C41.94420751 -0.05432864 51.32481036 -0.05520462 60.70549189 -0.04995751 C68.333302 -0.04590907 75.96109235 -0.04736735 83.58890152 -0.05270576 C84.67630164 -0.05345419 85.76370175 -0.05420261 86.88405339 -0.05497371 C89.09340548 -0.05650525 91.30275757 -0.0580436 93.51210965 -0.05958868 C114.21074466 -0.07330292 134.90934183 -0.06788356 155.60797597 -0.05640347 C174.5245766 -0.04647191 193.44107939 -0.05941235 212.35766493 -0.08333766 C231.80454249 -0.10774743 251.25137453 -0.11733192 270.6982671 -0.11068493 C281.6068965 -0.10719693 292.51545068 -0.10939711 303.42406845 -0.12693596 C312.71006023 -0.1416814 321.99592382 -0.14226274 331.28191315 -0.12486505 C336.01496484 -0.11637206 340.74778777 -0.1141638 345.48082733 -0.1295166 C349.82233491 -0.14342447 354.16341904 -0.13852286 358.5049025 -0.11927737 C360.06668043 -0.11553566 361.62849279 -0.11838592 363.19023989 -0.12888902 C380.2062236 -0.23509342 397.95849601 3.23233148 410.77127075 15.3525238 C416.99135834 22.35180163 421.03031783 30.42197563 423.5798645 39.38768005 C423.75646606 39.99563416 423.93306763 40.60358826 424.11502075 41.22996521 C429.23319626 60.9852087 426.7521686 83.93410752 417.134552 101.8056488 C409.96301041 113.71617391 398.07143123 120.61037732 384.81273365 123.97282505 C376.9315883 125.73780139 369.19214285 125.80929279 361.16645813 125.77536011 C359.54146642 125.77954109 357.91647764 125.78502278 356.29149419 125.79167992 C351.85947642 125.80605311 347.42764589 125.80191541 342.99561822 125.79451311 C338.20270408 125.78976346 333.4098294 125.80230715 328.6169281 125.81253052 C319.23993318 125.82968906 309.86300537 125.8305646 300.48599883 125.82531761 C292.86058099 125.821269 285.23518291 125.82272768 277.60976601 125.82806587 C275.97909892 125.82918851 275.97909892 125.82918851 274.31548906 125.83033382 C272.1067027 125.83186537 269.89791634 125.83340371 267.68912999 125.83494879 C246.9952336 125.84866331 226.30137506 125.84324362 205.60747955 125.83176357 C186.698021 125.82183348 167.78866033 125.83476988 148.87921687 125.85869776 C129.43798454 125.8831122 109.99679775 125.8926908 90.5555504 125.88604504 C79.65080151 125.88255788 68.74612786 125.88475155 57.84139061 125.90229607 C48.55798926 125.91704742 39.27471614 125.91761525 29.99131723 125.90022516 C25.26016689 125.89173672 20.52924532 125.8895126 15.79810715 125.90487671 C11.45716418 125.91879848 7.11664436 125.91386542 2.7757254 125.89463747 C1.21527555 125.89089995 -0.34520881 125.89373365 -1.90562771 125.90424912 C-18.8376666 126.01013147 -35.86069569 123.02500726 -48.79904175 111.1415863 C-61.36430019 97.54688501 -65.00940772 81.17943837 -64.8576355 63.07518005 C-64.85006226 61.80497009 -64.84248901 60.53476013 -64.83468628 59.22605896 C-64.55459089 43.23608785 -61.35124519 28.17820941 -50.17404175 16.0087738 C-35.83366506 2.75430538 -18.92050889 -0.07995944 0 0 Z " fill="#171717" transform="translate(75.42013549804688,345.61231994628906)"/>
<path d="M0 0 C1.6257044 -0.00418097 3.25140587 -0.00966265 4.87710202 -0.01631981 C9.31105038 -0.03069301 13.74481158 -0.02655531 18.17876983 -0.019153 C22.97370985 -0.01440339 27.76861042 -0.02694696 32.5635376 -0.03717041 C41.94420751 -0.05432864 51.32481036 -0.05520462 60.70549189 -0.04995751 C68.333302 -0.04590907 75.96109235 -0.04736735 83.58890152 -0.05270576 C84.67630164 -0.05345419 85.76370175 -0.05420261 86.88405339 -0.05497371 C89.09340548 -0.05650525 91.30275757 -0.0580436 93.51210965 -0.05958868 C114.21074466 -0.07330292 134.90934183 -0.06788356 155.60797597 -0.05640347 C174.5245766 -0.04647191 193.44107939 -0.05941235 212.35766493 -0.08333766 C231.80454249 -0.10774743 251.25137453 -0.11733192 270.6982671 -0.11068493 C281.6068965 -0.10719693 292.51545068 -0.10939711 303.42406845 -0.12693596 C312.71006023 -0.1416814 321.99592382 -0.14226274 331.28191315 -0.12486505 C336.01496484 -0.11637206 340.74778777 -0.1141638 345.48082733 -0.1295166 C349.82233491 -0.14342447 354.16341904 -0.13852286 358.5049025 -0.11927737 C360.06668043 -0.11553566 361.62849279 -0.11838592 363.19023989 -0.12888902 C380.2062236 -0.23509342 397.95849601 3.23233148 410.77127075 15.3525238 C416.99135834 22.35180163 421.03031783 30.42197563 423.5798645 39.38768005 C423.75646606 39.99563416 423.93306763 40.60358826 424.11502075 41.22996521 C429.23319626 60.9852087 426.7521686 83.93410752 417.134552 101.8056488 C409.96301041 113.71617391 398.07143123 120.61037732 384.81273365 123.97282505 C376.9315883 125.73780139 369.19214285 125.80929279 361.16645813 125.77536011 C359.54146642 125.77954109 357.91647764 125.78502278 356.29149419 125.79167992 C351.85947642 125.80605311 347.42764589 125.80191541 342.99561822 125.79451311 C338.20270408 125.78976346 333.4098294 125.80230715 328.6169281 125.81253052 C319.23993318 125.82968906 309.86300537 125.8305646 300.48599883 125.82531761 C292.86058099 125.821269 285.23518291 125.82272768 277.60976601 125.82806587 C275.97909892 125.82918851 275.97909892 125.82918851 274.31548906 125.83033382 C272.1067027 125.83186537 269.89791634 125.83340371 267.68912999 125.83494879 C246.9952336 125.84866331 226.30137506 125.84324362 205.60747955 125.83176357 C186.698021 125.82183348 167.78866033 125.83476988 148.87921687 125.85869776 C129.43798454 125.8831122 109.99679775 125.8926908 90.5555504 125.88604504 C79.65080151 125.88255788 68.74612786 125.88475155 57.84139061 125.90229607 C48.55798926 125.91704742 39.27471614 125.91761525 29.99131723 125.90022516 C25.26016689 125.89173672 20.52924532 125.8895126 15.79810715 125.90487671 C11.45716418 125.91879848 7.11664436 125.91386542 2.7757254 125.89463747 C1.21527555 125.89089995 -0.34520881 125.89373365 -1.90562771 125.90424912 C-18.8376666 126.01013147 -35.86069569 123.02500726 -48.79904175 111.1415863 C-61.36430019 97.54688501 -65.00940772 81.17943837 -64.8576355 63.07518005 C-64.85006226 61.80497009 -64.84248901 60.53476013 -64.83468628 59.22605896 C-64.55459089 43.23608785 -61.35124519 28.17820941 -50.17404175 16.0087738 C-35.83366506 2.75430538 -18.92050889 -0.07995944 0 0 Z " fill="#171717" transform="translate(75.42013549804688,193.61231994628906)"/>
<path d="M0 0 C1.6257044 -0.00418097 3.25140587 -0.00966265 4.87710202 -0.01631981 C9.31105038 -0.03069301 13.74481158 -0.02655531 18.17876983 -0.019153 C22.97370985 -0.01440339 27.76861042 -0.02694696 32.5635376 -0.03717041 C41.94420751 -0.05432864 51.32481036 -0.05520462 60.70549189 -0.04995751 C68.333302 -0.04590907 75.96109235 -0.04736735 83.58890152 -0.05270576 C84.67630164 -0.05345419 85.76370175 -0.05420261 86.88405339 -0.05497371 C89.09340548 -0.05650525 91.30275757 -0.0580436 93.51210965 -0.05958868 C114.21074466 -0.07330292 134.90934183 -0.06788356 155.60797597 -0.05640347 C174.5245766 -0.04647191 193.44107939 -0.05941235 212.35766493 -0.08333766 C231.80454249 -0.10774743 251.25137453 -0.11733192 270.6982671 -0.11068493 C281.6068965 -0.10719693 292.51545068 -0.10939711 303.42406845 -0.12693596 C312.71006023 -0.1416814 321.99592382 -0.14226274 331.28191315 -0.12486505 C336.01496484 -0.11637206 340.74778777 -0.1141638 345.48082733 -0.1295166 C349.82233491 -0.14342447 354.16341904 -0.13852286 358.5049025 -0.11927737 C360.06668043 -0.11553566 361.62849279 -0.11838592 363.19023989 -0.12888902 C380.2062236 -0.23509342 397.95849601 3.23233148 410.77127075 15.3525238 C416.99135834 22.35180163 421.03031783 30.42197563 423.5798645 39.38768005 C423.75646606 39.99563416 423.93306763 40.60358826 424.11502075 41.22996521 C429.23319626 60.9852087 426.7521686 83.93410752 417.134552 101.8056488 C409.96301041 113.71617391 398.07143123 120.61037732 384.81273365 123.97282505 C376.9315883 125.73780139 369.19214285 125.80929279 361.16645813 125.77536011 C359.54146642 125.77954109 357.91647764 125.78502278 356.29149419 125.79167992 C351.85947642 125.80605311 347.42764589 125.80191541 342.99561822 125.79451311 C338.20270408 125.78976346 333.4098294 125.80230715 328.6169281 125.81253052 C319.23993318 125.82968906 309.86300537 125.8305646 300.48599883 125.82531761 C292.86058099 125.821269 285.23518291 125.82272768 277.60976601 125.82806587 C275.97909892 125.82918851 275.97909892 125.82918851 274.31548906 125.83033382 C272.1067027 125.83186537 269.89791634 125.83340371 267.68912999 125.83494879 C246.9952336 125.84866331 226.30137506 125.84324362 205.60747955 125.83176357 C186.698021 125.82183348 167.78866033 125.83476988 148.87921687 125.85869776 C129.43798454 125.8831122 109.99679775 125.8926908 90.5555504 125.88604504 C79.65080151 125.88255788 68.74612786 125.88475155 57.84139061 125.90229607 C48.55798926 125.91704742 39.27471614 125.91761525 29.99131723 125.90022516 C25.26016689 125.89173672 20.52924532 125.8895126 15.79810715 125.90487671 C11.45716418 125.91879848 7.11664436 125.91386542 2.7757254 125.89463747 C1.21527555 125.89089995 -0.34520881 125.89373365 -1.90562771 125.90424912 C-18.8376666 126.01013147 -35.86069569 123.02500726 -48.79904175 111.1415863 C-61.36430019 97.54688501 -65.00940772 81.17943837 -64.8576355 63.07518005 C-64.85006226 61.80497009 -64.84248901 60.53476013 -64.83468628 59.22605896 C-64.55459089 43.23608785 -61.35124519 28.17820941 -50.17404175 16.0087738 C-35.83366506 2.75430538 -18.92050889 -0.07995944 0 0 Z " fill="#171717" transform="translate(75.42013549804688,41.61231994628906)"/>
<path d="M0 0 C1.05964714 -0.00503792 1.05964714 -0.00503792 2.14070129 -0.01017761 C4.46792377 -0.01964775 6.79507393 -0.02162903 9.12231445 -0.02270508 C10.75031056 -0.02592144 12.37830637 -0.0292858 14.00630188 -0.03279114 C17.41827056 -0.03877332 20.83021395 -0.04063208 24.2421875 -0.04003906 C28.59173839 -0.03993773 32.94112496 -0.05356371 37.29063702 -0.07081127 C40.65461455 -0.08199101 44.01855318 -0.08395641 47.38254738 -0.08342934 C48.98474504 -0.08460147 50.58694396 -0.0889797 52.18912315 -0.0967617 C67.40687417 -0.16373163 82.15307518 0.73246544 93.75512695 11.73901367 C103.97195325 23.77259875 104.75186591 38.42515502 104.04077148 53.43969727 C103.09368033 63.9987155 98.80180198 73.60836825 90.98950195 80.81323242 C81.56006938 88.49717647 71.16653527 90.22940426 59.30322266 90.32226562 C58.25014671 90.33212242 58.25014671 90.33212242 57.17579651 90.34217834 C54.8793218 90.36169904 52.5829118 90.3735261 50.28637695 90.38354492 C49.49352987 90.38762045 48.70068279 90.39169598 47.88381004 90.395895 C43.68670294 90.41666575 39.48962765 90.43100585 35.29248047 90.44042969 C30.99358976 90.45147405 26.69521942 90.48587696 22.39651203 90.52560139 C19.05815268 90.55193881 15.71991426 90.56013657 12.38146019 90.56371117 C10.7984586 90.56853316 9.21546076 90.58001909 7.63256264 90.59874916 C-7.00579819 90.76119893 -19.57507696 88.51641787 -30.90893555 78.66088867 C-40.13899456 69.22052452 -41.46336245 55.74146996 -41.44848633 43.28271484 C-41.29350915 30.91532341 -38.74601807 20.64098235 -30.45581055 11.14526367 C-22.14463826 3.12783345 -11.29130912 0.0338011 0 0 Z " fill="#E28316" transform="translate(372.201904296875,363.854736328125)"/>
<path d="M0 0 C1.05964714 -0.00503792 1.05964714 -0.00503792 2.14070129 -0.01017761 C4.46792377 -0.01964775 6.79507393 -0.02162903 9.12231445 -0.02270508 C10.75031056 -0.02592144 12.37830637 -0.0292858 14.00630188 -0.03279114 C17.41827056 -0.03877332 20.83021395 -0.04063208 24.2421875 -0.04003906 C28.59173839 -0.03993773 32.94112496 -0.05356371 37.29063702 -0.07081127 C40.65461455 -0.08199101 44.01855318 -0.08395641 47.38254738 -0.08342934 C48.98474504 -0.08460147 50.58694396 -0.0889797 52.18912315 -0.0967617 C67.40687417 -0.16373163 82.15307518 0.73246544 93.75512695 11.73901367 C103.97195325 23.77259875 104.75186591 38.42515502 104.04077148 53.43969727 C103.09368033 63.9987155 98.80180198 73.60836825 90.98950195 80.81323242 C81.56006938 88.49717647 71.16653527 90.22940426 59.30322266 90.32226562 C58.25014671 90.33212242 58.25014671 90.33212242 57.17579651 90.34217834 C54.8793218 90.36169904 52.5829118 90.3735261 50.28637695 90.38354492 C49.49352987 90.38762045 48.70068279 90.39169598 47.88381004 90.395895 C43.68670294 90.41666575 39.48962765 90.43100585 35.29248047 90.44042969 C30.99358976 90.45147405 26.69521942 90.48587696 22.39651203 90.52560139 C19.05815268 90.55193881 15.71991426 90.56013657 12.38146019 90.56371117 C10.7984586 90.56853316 9.21546076 90.58001909 7.63256264 90.59874916 C-7.00579819 90.76119893 -19.57507696 88.51641787 -30.90893555 78.66088867 C-40.13899456 69.22052452 -41.46336245 55.74146996 -41.44848633 43.28271484 C-41.29350915 30.91532341 -38.74601807 20.64098235 -30.45581055 11.14526367 C-22.14463826 3.12783345 -11.29130912 0.0338011 0 0 Z " fill="#E28316" transform="translate(372.201904296875,59.854736328125)"/>
<path d="M0 0 C1.05964714 -0.00503792 1.05964714 -0.00503792 2.14070129 -0.01017761 C4.46792377 -0.01964775 6.79507393 -0.02162903 9.12231445 -0.02270508 C10.75031056 -0.02592144 12.37830637 -0.0292858 14.00630188 -0.03279114 C17.41827056 -0.03877332 20.83021395 -0.04063208 24.2421875 -0.04003906 C28.59173839 -0.03993773 32.94112496 -0.05356371 37.29063702 -0.07081127 C40.65461455 -0.08199101 44.01855318 -0.08395641 47.38254738 -0.08342934 C48.98474504 -0.08460147 50.58694396 -0.0889797 52.18912315 -0.0967617 C67.40687417 -0.16373163 82.15307518 0.73246544 93.75512695 11.73901367 C103.97195325 23.77259875 104.75186591 38.42515502 104.04077148 53.43969727 C103.09368033 63.9987155 98.80180198 73.60836825 90.98950195 80.81323242 C81.56006938 88.49717647 71.16653527 90.22940426 59.30322266 90.32226562 C58.25014671 90.33212242 58.25014671 90.33212242 57.17579651 90.34217834 C54.8793218 90.36169904 52.5829118 90.3735261 50.28637695 90.38354492 C49.49352987 90.38762045 48.70068279 90.39169598 47.88381004 90.395895 C43.68670294 90.41666575 39.48962765 90.43100585 35.29248047 90.44042969 C30.99358976 90.45147405 26.69521942 90.48587696 22.39651203 90.52560139 C19.05815268 90.55193881 15.71991426 90.56013657 12.38146019 90.56371117 C10.7984586 90.56853316 9.21546076 90.58001909 7.63256264 90.59874916 C-7.00579819 90.76119893 -19.57507696 88.51641787 -30.90893555 78.66088867 C-40.13899456 69.22052452 -41.46336245 55.74146996 -41.44848633 43.28271484 C-41.29350915 30.91532341 -38.74601807 20.64098235 -30.45581055 11.14526367 C-22.14463826 3.12783345 -11.29130912 0.0338011 0 0 Z " fill="#E28316" transform="translate(212.201904296875,59.854736328125)"/>
<path d="M0 0 C1.6257044 -0.00418097 3.25140587 -0.00966265 4.87710202 -0.01631981 C9.31105038 -0.03069301 13.74481158 -0.02655531 18.17876983 -0.019153 C22.97370985 -0.01440339 27.76861042 -0.02694696 32.5635376 -0.03717041 C41.94420751 -0.05432864 51.32481036 -0.05520462 60.70549189 -0.04995751 C68.333302 -0.04590907 75.96109235 -0.04736735 83.58890152 -0.05270576 C84.67630164 -0.05345419 85.76370175 -0.05420261 86.88405339 -0.05497371 C89.09340548 -0.05650525 91.30275757 -0.0580436 93.51210965 -0.05958868 C114.21074466 -0.07330292 134.90934183 -0.06788356 155.60797597 -0.05640347 C174.5245766 -0.04647191 193.44107939 -0.05941235 212.35766493 -0.08333766 C231.80454249 -0.10774743 251.25137453 -0.11733192 270.6982671 -0.11068493 C281.6068965 -0.10719693 292.51545068 -0.10939711 303.42406845 -0.12693596 C312.71006023 -0.1416814 321.99592382 -0.14226274 331.28191315 -0.12486505 C336.01496484 -0.11637206 340.74778777 -0.1141638 345.48082733 -0.1295166 C349.82233491 -0.14342447 354.16341904 -0.13852286 358.5049025 -0.11927737 C360.06668043 -0.11553566 361.62849279 -0.11838592 363.19023989 -0.12888902 C380.2062236 -0.23509342 397.95849601 3.23233148 410.77127075 15.3525238 C416.99135834 22.35180163 421.03031783 30.42197563 423.5798645 39.38768005 C423.75646606 39.99563416 423.93306763 40.60358826 424.11502075 41.22996521 C429.23319626 60.9852087 426.7521686 83.93410752 417.134552 101.8056488 C409.96301041 113.71617391 398.07143123 120.61037732 384.81273365 123.97282505 C376.9315883 125.73780139 369.19214285 125.80929279 361.16645813 125.77536011 C359.54146642 125.77954109 357.91647764 125.78502278 356.29149419 125.79167992 C351.85947642 125.80605311 347.42764589 125.80191541 342.99561822 125.79451311 C338.20270408 125.78976346 333.4098294 125.80230715 328.6169281 125.81253052 C319.23993318 125.82968906 309.86300537 125.8305646 300.48599883 125.82531761 C292.86058099 125.821269 285.23518291 125.82272768 277.60976601 125.82806587 C275.97909892 125.82918851 275.97909892 125.82918851 274.31548906 125.83033382 C272.1067027 125.83186537 269.89791634 125.83340371 267.68912999 125.83494879 C246.9952336 125.84866331 226.30137506 125.84324362 205.60747955 125.83176357 C186.698021 125.82183348 167.78866033 125.83476988 148.87921687 125.85869776 C129.43798454 125.8831122 109.99679775 125.8926908 90.5555504 125.88604504 C79.65080151 125.88255788 68.74612786 125.88475155 57.84139061 125.90229607 C48.55798926 125.91704742 39.27471614 125.91761525 29.99131723 125.90022516 C25.26016689 125.89173672 20.52924532 125.8895126 15.79810715 125.90487671 C11.45716418 125.91879848 7.11664436 125.91386542 2.7757254 125.89463747 C1.21527555 125.89089995 -0.34520881 125.89373365 -1.90562771 125.90424912 C-18.8376666 126.01013147 -35.86069569 123.02500726 -48.79904175 111.1415863 C-61.36430019 97.54688501 -65.00940772 81.17943837 -64.8576355 63.07518005 C-64.85006226 61.80497009 -64.84248901 60.53476013 -64.83468628 59.22605896 C-64.55459089 43.23608785 -61.35124519 28.17820941 -50.17404175 16.0087738 C-35.83366506 2.75430538 -18.92050889 -0.07995944 0 0 Z M-22.4201355 7.38768005 C-23.69921812 7.69017197 -23.69921812 7.69017197 -25.00414079 7.99877483 C-36.66601811 10.85493891 -45.83720769 17.94448525 -52.07247925 28.0712738 C-62.17173247 46.66476446 -61.56161059 69.58517101 -55.7951355 89.51268005 C-51.69399654 100.99586915 -44.09479489 108.94338062 -33.4826355 114.57518005 C-24.73009 118.69402499 -16.3039859 120.51040412 -6.59804344 120.51631451 C-5.94552579 120.51806754 -5.29300814 120.51982058 -4.62071723 120.52162674 C-2.44302575 120.52626372 -0.26540171 120.52382721 1.91229248 120.52139282 C3.49299275 120.52326196 5.07369257 120.52556308 6.65439165 120.52825814 C10.99168785 120.53436996 15.32896477 120.53424327 19.6662643 120.53306377 C24.34673659 120.5328596 29.02720271 120.5383801 33.70767212 120.54312134 C42.8759152 120.55142543 52.04415184 120.55417608 61.21239837 120.55473372 C68.66683152 120.55520906 76.12126255 120.55726473 83.57569504 120.56043434 C104.71809636 120.56924083 125.86049261 120.57385381 147.00289579 120.57310387 C148.7123454 120.57304393 148.7123454 120.57304393 150.45632935 120.57298279 C151.59735687 120.57294191 152.7383844 120.57290103 153.91398852 120.57285891 C172.39903557 120.5724526 190.88406223 120.58201823 209.36910339 120.59612115 C228.35698759 120.61049318 247.34486185 120.61739086 266.33275163 120.61652738 C276.98987525 120.61619566 287.64697751 120.61893169 298.30409622 120.62970543 C307.37945323 120.63882137 316.4547792 120.64097675 325.53013881 120.63419601 C330.15752857 120.63093612 334.78485882 120.63085485 339.41224289 120.63954926 C343.65508313 120.64743887 347.89781689 120.64595779 352.14065461 120.63726512 C353.66893083 120.63573552 355.19721509 120.63752575 356.72548182 120.6431252 C375.03684581 120.7057293 392.38576399 118.99443383 406.5798645 106.38768005 C418.8232189 93.25343709 420.88866577 76.49429725 420.73220825 59.2665863 C420.19971659 45.7085294 417.30412128 34.55891786 409.5798645 23.38768005 C408.744552 22.11924255 408.744552 22.11924255 407.8923645 20.82518005 C397.25303981 9.61075673 382.31810228 5.71266332 367.25399697 5.29560053 C363.17723038 5.25570157 359.10160782 5.24938528 355.02470398 5.25396729 C353.44426432 5.25209714 351.86382512 5.24979562 350.28338665 5.24710196 C345.95621885 5.24100297 341.62907043 5.24111531 337.30189931 5.24229634 C332.62901792 5.24250082 327.95614267 5.23697713 323.28326416 5.23223877 C314.13501797 5.22394261 304.98677822 5.22118442 295.83852858 5.22062639 C288.40223343 5.22015084 280.9659404 5.21809414 273.52964592 5.21492577 C252.43920143 5.20612283 231.34876203 5.20150595 210.25831569 5.20225624 C208.55386053 5.20231617 208.55386053 5.20231617 206.81497192 5.20237732 C205.10843266 5.20243864 205.10843266 5.20243864 203.36741786 5.2025012 C184.92250368 5.2029078 166.4776099 5.19333376 148.03270162 5.17923895 C129.08657904 5.1648755 110.14046642 5.15796872 91.19433826 5.15883273 C80.56025546 5.15916466 69.92619406 5.1564192 59.29211617 5.14565468 C50.24014443 5.13655021 41.1882038 5.13437409 32.13622946 5.1411641 C27.51932378 5.14442926 22.90247778 5.14448604 18.28557777 5.13581085 C14.05592709 5.12794509 9.82638343 5.12937808 5.59673535 5.13809498 C4.06991817 5.13962977 2.543093 5.13781462 1.01628525 5.13223491 C-7.00766513 5.1048627 -14.61234863 5.3797583 -22.4201355 7.38768005 Z " fill="#3F3F3F" transform="translate(75.42013549804688,345.61231994628906)"/>
<path d="M0 0 C1.6257044 -0.00418097 3.25140587 -0.00966265 4.87710202 -0.01631981 C9.31105038 -0.03069301 13.74481158 -0.02655531 18.17876983 -0.019153 C22.97370985 -0.01440339 27.76861042 -0.02694696 32.5635376 -0.03717041 C41.94420751 -0.05432864 51.32481036 -0.05520462 60.70549189 -0.04995751 C68.333302 -0.04590907 75.96109235 -0.04736735 83.58890152 -0.05270576 C84.67630164 -0.05345419 85.76370175 -0.05420261 86.88405339 -0.05497371 C89.09340548 -0.05650525 91.30275757 -0.0580436 93.51210965 -0.05958868 C114.21074466 -0.07330292 134.90934183 -0.06788356 155.60797597 -0.05640347 C174.5245766 -0.04647191 193.44107939 -0.05941235 212.35766493 -0.08333766 C231.80454249 -0.10774743 251.25137453 -0.11733192 270.6982671 -0.11068493 C281.6068965 -0.10719693 292.51545068 -0.10939711 303.42406845 -0.12693596 C312.71006023 -0.1416814 321.99592382 -0.14226274 331.28191315 -0.12486505 C336.01496484 -0.11637206 340.74778777 -0.1141638 345.48082733 -0.1295166 C349.82233491 -0.14342447 354.16341904 -0.13852286 358.5049025 -0.11927737 C360.06668043 -0.11553566 361.62849279 -0.11838592 363.19023989 -0.12888902 C380.2062236 -0.23509342 397.95849601 3.23233148 410.77127075 15.3525238 C416.99135834 22.35180163 421.03031783 30.42197563 423.5798645 39.38768005 C423.75646606 39.99563416 423.93306763 40.60358826 424.11502075 41.22996521 C429.23319626 60.9852087 426.7521686 83.93410752 417.134552 101.8056488 C409.96301041 113.71617391 398.07143123 120.61037732 384.81273365 123.97282505 C376.9315883 125.73780139 369.19214285 125.80929279 361.16645813 125.77536011 C359.54146642 125.77954109 357.91647764 125.78502278 356.29149419 125.79167992 C351.85947642 125.80605311 347.42764589 125.80191541 342.99561822 125.79451311 C338.20270408 125.78976346 333.4098294 125.80230715 328.6169281 125.81253052 C319.23993318 125.82968906 309.86300537 125.8305646 300.48599883 125.82531761 C292.86058099 125.821269 285.23518291 125.82272768 277.60976601 125.82806587 C275.97909892 125.82918851 275.97909892 125.82918851 274.31548906 125.83033382 C272.1067027 125.83186537 269.89791634 125.83340371 267.68912999 125.83494879 C246.9952336 125.84866331 226.30137506 125.84324362 205.60747955 125.83176357 C186.698021 125.82183348 167.78866033 125.83476988 148.87921687 125.85869776 C129.43798454 125.8831122 109.99679775 125.8926908 90.5555504 125.88604504 C79.65080151 125.88255788 68.74612786 125.88475155 57.84139061 125.90229607 C48.55798926 125.91704742 39.27471614 125.91761525 29.99131723 125.90022516 C25.26016689 125.89173672 20.52924532 125.8895126 15.79810715 125.90487671 C11.45716418 125.91879848 7.11664436 125.91386542 2.7757254 125.89463747 C1.21527555 125.89089995 -0.34520881 125.89373365 -1.90562771 125.90424912 C-18.8376666 126.01013147 -35.86069569 123.02500726 -48.79904175 111.1415863 C-61.36430019 97.54688501 -65.00940772 81.17943837 -64.8576355 63.07518005 C-64.85006226 61.80497009 -64.84248901 60.53476013 -64.83468628 59.22605896 C-64.55459089 43.23608785 -61.35124519 28.17820941 -50.17404175 16.0087738 C-35.83366506 2.75430538 -18.92050889 -0.07995944 0 0 Z M-22.4201355 7.38768005 C-23.69921812 7.69017197 -23.69921812 7.69017197 -25.00414079 7.99877483 C-36.66601811 10.85493891 -45.83720769 17.94448525 -52.07247925 28.0712738 C-62.17173247 46.66476446 -61.56161059 69.58517101 -55.7951355 89.51268005 C-51.69399654 100.99586915 -44.09479489 108.94338062 -33.4826355 114.57518005 C-24.73009 118.69402499 -16.3039859 120.51040412 -6.59804344 120.51631451 C-5.94552579 120.51806754 -5.29300814 120.51982058 -4.62071723 120.52162674 C-2.44302575 120.52626372 -0.26540171 120.52382721 1.91229248 120.52139282 C3.49299275 120.52326196 5.07369257 120.52556308 6.65439165 120.52825814 C10.99168785 120.53436996 15.32896477 120.53424327 19.6662643 120.53306377 C24.34673659 120.5328596 29.02720271 120.5383801 33.70767212 120.54312134 C42.8759152 120.55142543 52.04415184 120.55417608 61.21239837 120.55473372 C68.66683152 120.55520906 76.12126255 120.55726473 83.57569504 120.56043434 C104.71809636 120.56924083 125.86049261 120.57385381 147.00289579 120.57310387 C148.7123454 120.57304393 148.7123454 120.57304393 150.45632935 120.57298279 C151.59735687 120.57294191 152.7383844 120.57290103 153.91398852 120.57285891 C172.39903557 120.5724526 190.88406223 120.58201823 209.36910339 120.59612115 C228.35698759 120.61049318 247.34486185 120.61739086 266.33275163 120.61652738 C276.98987525 120.61619566 287.64697751 120.61893169 298.30409622 120.62970543 C307.37945323 120.63882137 316.4547792 120.64097675 325.53013881 120.63419601 C330.15752857 120.63093612 334.78485882 120.63085485 339.41224289 120.63954926 C343.65508313 120.64743887 347.89781689 120.64595779 352.14065461 120.63726512 C353.66893083 120.63573552 355.19721509 120.63752575 356.72548182 120.6431252 C375.03684581 120.7057293 392.38576399 118.99443383 406.5798645 106.38768005 C418.8232189 93.25343709 420.88866577 76.49429725 420.73220825 59.2665863 C420.19971659 45.7085294 417.30412128 34.55891786 409.5798645 23.38768005 C408.744552 22.11924255 408.744552 22.11924255 407.8923645 20.82518005 C397.25303981 9.61075673 382.31810228 5.71266332 367.25399697 5.29560053 C363.17723038 5.25570157 359.10160782 5.24938528 355.02470398 5.25396729 C353.44426432 5.25209714 351.86382512 5.24979562 350.28338665 5.24710196 C345.95621885 5.24100297 341.62907043 5.24111531 337.30189931 5.24229634 C332.62901792 5.24250082 327.95614267 5.23697713 323.28326416 5.23223877 C314.13501797 5.22394261 304.98677822 5.22118442 295.83852858 5.22062639 C288.40223343 5.22015084 280.9659404 5.21809414 273.52964592 5.21492577 C252.43920143 5.20612283 231.34876203 5.20150595 210.25831569 5.20225624 C208.55386053 5.20231617 208.55386053 5.20231617 206.81497192 5.20237732 C205.10843266 5.20243864 205.10843266 5.20243864 203.36741786 5.2025012 C184.92250368 5.2029078 166.4776099 5.19333376 148.03270162 5.17923895 C129.08657904 5.1648755 110.14046642 5.15796872 91.19433826 5.15883273 C80.56025546 5.15916466 69.92619406 5.1564192 59.29211617 5.14565468 C50.24014443 5.13655021 41.1882038 5.13437409 32.13622946 5.1411641 C27.51932378 5.14442926 22.90247778 5.14448604 18.28557777 5.13581085 C14.05592709 5.12794509 9.82638343 5.12937808 5.59673535 5.13809498 C4.06991817 5.13962977 2.543093 5.13781462 1.01628525 5.13223491 C-7.00766513 5.1048627 -14.61234863 5.3797583 -22.4201355 7.38768005 Z " fill="#3F3F3F" transform="translate(75.42013549804688,193.61231994628906)"/>
<path d="M0 0 C1.6257044 -0.00418097 3.25140587 -0.00966265 4.87710202 -0.01631981 C9.31105038 -0.03069301 13.74481158 -0.02655531 18.17876983 -0.019153 C22.97370985 -0.01440339 27.76861042 -0.02694696 32.5635376 -0.03717041 C41.94420751 -0.05432864 51.32481036 -0.05520462 60.70549189 -0.04995751 C68.333302 -0.04590907 75.96109235 -0.04736735 83.58890152 -0.05270576 C84.67630164 -0.05345419 85.76370175 -0.05420261 86.88405339 -0.05497371 C89.09340548 -0.05650525 91.30275757 -0.0580436 93.51210965 -0.05958868 C114.21074466 -0.07330292 134.90934183 -0.06788356 155.60797597 -0.05640347 C174.5245766 -0.04647191 193.44107939 -0.05941235 212.35766493 -0.08333766 C231.80454249 -0.10774743 251.25137453 -0.11733192 270.6982671 -0.11068493 C281.6068965 -0.10719693 292.51545068 -0.10939711 303.42406845 -0.12693596 C312.71006023 -0.1416814 321.99592382 -0.14226274 331.28191315 -0.12486505 C336.01496484 -0.11637206 340.74778777 -0.1141638 345.48082733 -0.1295166 C349.82233491 -0.14342447 354.16341904 -0.13852286 358.5049025 -0.11927737 C360.06668043 -0.11553566 361.62849279 -0.11838592 363.19023989 -0.12888902 C380.2062236 -0.23509342 397.95849601 3.23233148 410.77127075 15.3525238 C416.99135834 22.35180163 421.03031783 30.42197563 423.5798645 39.38768005 C423.75646606 39.99563416 423.93306763 40.60358826 424.11502075 41.22996521 C429.23319626 60.9852087 426.7521686 83.93410752 417.134552 101.8056488 C409.96301041 113.71617391 398.07143123 120.61037732 384.81273365 123.97282505 C376.9315883 125.73780139 369.19214285 125.80929279 361.16645813 125.77536011 C359.54146642 125.77954109 357.91647764 125.78502278 356.29149419 125.79167992 C351.85947642 125.80605311 347.42764589 125.80191541 342.99561822 125.79451311 C338.20270408 125.78976346 333.4098294 125.80230715 328.6169281 125.81253052 C319.23993318 125.82968906 309.86300537 125.8305646 300.48599883 125.82531761 C292.86058099 125.821269 285.23518291 125.82272768 277.60976601 125.82806587 C275.97909892 125.82918851 275.97909892 125.82918851 274.31548906 125.83033382 C272.1067027 125.83186537 269.89791634 125.83340371 267.68912999 125.83494879 C246.9952336 125.84866331 226.30137506 125.84324362 205.60747955 125.83176357 C186.698021 125.82183348 167.78866033 125.83476988 148.87921687 125.85869776 C129.43798454 125.8831122 109.99679775 125.8926908 90.5555504 125.88604504 C79.65080151 125.88255788 68.74612786 125.88475155 57.84139061 125.90229607 C48.55798926 125.91704742 39.27471614 125.91761525 29.99131723 125.90022516 C25.26016689 125.89173672 20.52924532 125.8895126 15.79810715 125.90487671 C11.45716418 125.91879848 7.11664436 125.91386542 2.7757254 125.89463747 C1.21527555 125.89089995 -0.34520881 125.89373365 -1.90562771 125.90424912 C-18.8376666 126.01013147 -35.86069569 123.02500726 -48.79904175 111.1415863 C-61.36430019 97.54688501 -65.00940772 81.17943837 -64.8576355 63.07518005 C-64.85006226 61.80497009 -64.84248901 60.53476013 -64.83468628 59.22605896 C-64.55459089 43.23608785 -61.35124519 28.17820941 -50.17404175 16.0087738 C-35.83366506 2.75430538 -18.92050889 -0.07995944 0 0 Z M-22.4201355 7.38768005 C-23.69921812 7.69017197 -23.69921812 7.69017197 -25.00414079 7.99877483 C-36.66601811 10.85493891 -45.83720769 17.94448525 -52.07247925 28.0712738 C-62.17173247 46.66476446 -61.56161059 69.58517101 -55.7951355 89.51268005 C-51.69399654 100.99586915 -44.09479489 108.94338062 -33.4826355 114.57518005 C-24.73009 118.69402499 -16.3039859 120.51040412 -6.59804344 120.51631451 C-5.94552579 120.51806754 -5.29300814 120.51982058 -4.62071723 120.52162674 C-2.44302575 120.52626372 -0.26540171 120.52382721 1.91229248 120.52139282 C3.49299275 120.52326196 5.07369257 120.52556308 6.65439165 120.52825814 C10.99168785 120.53436996 15.32896477 120.53424327 19.6662643 120.53306377 C24.34673659 120.5328596 29.02720271 120.5383801 33.70767212 120.54312134 C42.8759152 120.55142543 52.04415184 120.55417608 61.21239837 120.55473372 C68.66683152 120.55520906 76.12126255 120.55726473 83.57569504 120.56043434 C104.71809636 120.56924083 125.86049261 120.57385381 147.00289579 120.57310387 C148.7123454 120.57304393 148.7123454 120.57304393 150.45632935 120.57298279 C151.59735687 120.57294191 152.7383844 120.57290103 153.91398852 120.57285891 C172.39903557 120.5724526 190.88406223 120.58201823 209.36910339 120.59612115 C228.35698759 120.61049318 247.34486185 120.61739086 266.33275163 120.61652738 C276.98987525 120.61619566 287.64697751 120.61893169 298.30409622 120.62970543 C307.37945323 120.63882137 316.4547792 120.64097675 325.53013881 120.63419601 C330.15752857 120.63093612 334.78485882 120.63085485 339.41224289 120.63954926 C343.65508313 120.64743887 347.89781689 120.64595779 352.14065461 120.63726512 C353.66893083 120.63573552 355.19721509 120.63752575 356.72548182 120.6431252 C375.03684581 120.7057293 392.38576399 118.99443383 406.5798645 106.38768005 C418.8232189 93.25343709 420.88866577 76.49429725 420.73220825 59.2665863 C420.19971659 45.7085294 417.30412128 34.55891786 409.5798645 23.38768005 C408.744552 22.11924255 408.744552 22.11924255 407.8923645 20.82518005 C397.25303981 9.61075673 382.31810228 5.71266332 367.25399697 5.29560053 C363.17723038 5.25570157 359.10160782 5.24938528 355.02470398 5.25396729 C353.44426432 5.25209714 351.86382512 5.24979562 350.28338665 5.24710196 C345.95621885 5.24100297 341.62907043 5.24111531 337.30189931 5.24229634 C332.62901792 5.24250082 327.95614267 5.23697713 323.28326416 5.23223877 C314.13501797 5.22394261 304.98677822 5.22118442 295.83852858 5.22062639 C288.40223343 5.22015084 280.9659404 5.21809414 273.52964592 5.21492577 C252.43920143 5.20612283 231.34876203 5.20150595 210.25831569 5.20225624 C208.55386053 5.20231617 208.55386053 5.20231617 206.81497192 5.20237732 C205.10843266 5.20243864 205.10843266 5.20243864 203.36741786 5.2025012 C184.92250368 5.2029078 166.4776099 5.19333376 148.03270162 5.17923895 C129.08657904 5.1648755 110.14046642 5.15796872 91.19433826 5.15883273 C80.56025546 5.15916466 69.92619406 5.1564192 59.29211617 5.14565468 C50.24014443 5.13655021 41.1882038 5.13437409 32.13622946 5.1411641 C27.51932378 5.14442926 22.90247778 5.14448604 18.28557777 5.13581085 C14.05592709 5.12794509 9.82638343 5.12937808 5.59673535 5.13809498 C4.06991817 5.13962977 2.543093 5.13781462 1.01628525 5.13223491 C-7.00766513 5.1048627 -14.61234863 5.3797583 -22.4201355 7.38768005 Z " fill="#3F3F3F" transform="translate(75.42013549804688,41.61231994628906)"/>
</svg>
